<svg xmlns="http://www.w3.org/2000/svg" viewBox="0 0 512 512">
  <defs>
    <linearGradient id="grad1" x1="0%" y1="0%" x2="100%" y2="100%">
      <stop offset="0%" style="stop-color:#1e40af;stop-opacity:1" />
      <stop offset="100%" style="stop-color:#1e3a5f;stop-opacity:1" />
    </linearGradient>
  </defs>
  <!-- Background with rounded corners -->
  <rect width="512" height="512" rx="112" fill="url(#grad1)"/>
  
  <!-- Stylized Book / Shield -->
  <path d="M150 140 C 150 120, 170 110, 256 110 C 342 110, 362 120, 362 140 L 362 340 C 362 370, 342 380, 256 400 C 170 380, 150 370, 150 340 Z" fill="#ffffff" opacity="0.1" />
  
  <!-- Circuit / Tech lines -->
  <g stroke="#38bdf8" stroke-width="16" stroke-linecap="round" fill="none">
    <path d="M256 160 L 256 360" opacity="0.8" />
    <path d="M200 200 L 256 230 L 312 200" />
    <path d="M200 280 L 256 310 L 312 280" />
    <!-- Dots -->
    <circle cx="256" cy="160" r="12" fill="#38bdf8" stroke="none" />
    <circle cx="200" cy="200" r="8" fill="#38bdf8" stroke="none" />
    <circle cx="312" cy="200" r="8" fill="#38bdf8" stroke="none" />
    <circle cx="256" cy="360" r="12" fill="#38bdf8" stroke="none" />
  </g>
  
  <!-- Invenza "i" hint -->
  <path d="M256 160 L 256 360" stroke="#ffffff" stroke-width="8" stroke-linecap="round" opacity="0.9" />
</svg>
